<svg width="260" height="260" viewBox="0 0 260 260" fill="none" xmlns="http://www.w3.org/2000/svg">
<g opacity="0.4">
<mask id="mask0" mask-type="alpha" maskUnits="userSpaceOnUse" x="0" y="0" width="260" height="260">
<g opacity="0.45">
<path d="M17.0342 194.102L65.5012 242.569C56.8966 237.652 48.9065 231.77 41.6774 225.097L34.5069 217.926C27.8339 210.697 21.9511 202.707 17.0342 194.102Z" fill="#E1EFEE"/>
<path d="M2.57617 155.586L104.017 257.028C101.208 256.472 98.4566 255.798 95.7054 255.067L4.53705 163.898C3.80536 161.147 3.13226 158.396 2.57617 155.586Z" fill="#E1EFEE"/>
<path d="M0 129.802C0 129.538 0 129.246 0 128.982L130.621 259.574C130.358 259.574 130.065 259.574 129.802 259.574C127.899 259.574 126.026 259.515 124.182 259.457L0.146302 135.421C0.0584994 133.548 0 131.675 0 129.802Z" fill="#E1EFEE"/>
<path d="M2.01919 106.915L152.659 257.555C150.845 257.877 149.001 258.169 147.186 258.403L1.17041 112.388C1.40455 110.573 1.69725 108.729 2.01919 106.915Z" fill="#E1EFEE"/>
<path d="M6.93643 87.803L171.771 252.638C170.191 253.194 168.581 253.691 166.971 254.16L5.41455 92.6029C5.9121 90.9931 6.40961 89.3834 6.93643 87.803Z" fill="#E1EFEE"/>
<path d="M14.1074 70.9156L188.688 245.496C187.283 246.199 185.849 246.901 184.415 247.574L12.0293 75.1887C12.7025 73.7545 13.3757 72.3204 14.1074 70.9156Z" fill="#E1EFEE"/>
<path d="M23.1215 55.8718L203.731 236.482C202.473 237.36 201.214 238.209 199.927 239.028L20.5752 59.6766C21.3947 58.3888 22.2434 57.1303 23.1215 55.8718Z" fill="#E1EFEE"/>
<path d="M33.7749 42.4673L217.107 225.799C215.995 226.794 214.882 227.789 213.741 228.755L30.8188 45.8331C31.7847 44.721 32.7798 43.5795 33.7749 42.4673Z" fill="#E1EFEE"/>
<path d="M46.038 30.6724L228.931 213.565C227.965 214.707 226.97 215.848 225.975 216.96L42.6431 33.6285C43.7552 32.6334 44.8673 31.6383 46.038 30.6724Z" fill="#E1EFEE"/>
<path d="M59.8521 20.4582L239.145 199.751C238.326 201.039 237.477 202.297 236.599 203.556L56.0474 22.9752C57.3059 22.1264 58.5643 21.2777 59.8521 20.4582Z" fill="#E1EFEE"/>
<path d="M75.3931 11.9412L247.633 184.181C246.959 185.615 246.286 187.049 245.555 188.454L71.0908 13.9899C72.5249 13.2875 73.959 12.6143 75.3931 11.9412Z" fill="#E1EFEE"/>
<path d="M92.8662 5.35626L254.247 166.737C253.779 168.347 253.252 169.957 252.726 171.537L88.0664 6.87819C89.6469 6.32211 91.2565 5.82455 92.8662 5.35626Z" fill="#E1EFEE"/>
<path d="M112.71 1.14171L258.462 146.894C258.228 148.738 257.935 150.582 257.613 152.396L107.208 1.99046C109.022 1.66852 110.866 1.37584 112.71 1.14171Z" fill="#E1EFEE"/>
<path d="M129.801 -4.57764e-05C131.821 -4.57764e-05 133.811 0.0584717 135.772 0.146271L259.427 123.802C259.515 125.792 259.574 127.782 259.574 129.772C259.574 129.948 259.574 130.094 259.574 130.27L129.304 -4.57764e-05C129.45 0.0292206 129.626 -4.57764e-05 129.801 -4.57764e-05Z" fill="#E1EFEE"/>
<path d="M164.337 4.68289L254.92 95.2659C255.681 98.0171 256.355 100.797 256.94 103.607L155.996 2.66343C158.806 3.24878 161.586 3.92194 164.337 4.68289Z" fill="#E1EFEE"/>
<path d="M242.072 64.7108L194.863 17.5023C214.414 28.8581 230.716 45.1601 242.072 64.7108Z" fill="#E1EFEE"/>
</g>
</mask>
<g mask="url(#mask0)">
<rect width="352" height="151" transform="matrix(1 0 0 -1 -37 273)" fill="#54B3FD"/>
</g>
</g>
</svg>
