<svg width="61" height="54" viewBox="0 0 61 54" fill="none" xmlns="http://www.w3.org/2000/svg">
<path d="M55.3736 0H28.5802C25.4845 0 22.9659 2.51867 22.9659 5.61432V22.8021L17.9909 20.3281C17.8229 20.2443 17.6521 20.1652 17.48 20.0903C18.9405 18.5655 19.8409 16.4996 19.8409 14.2266C19.8409 9.54798 16.0347 5.74135 11.3561 5.74135C6.67707 5.74135 2.87091 9.54798 2.87091 14.2266C2.87091 16.769 3.99647 19.0527 5.77392 20.6091C2.50053 22.4508 0 26.0434 0 30.494V36.2353C0 38.707 1.60482 40.8106 3.82757 41.5584V51.546C3.82757 52.5325 4.62742 53.3328 5.61432 53.3328H17.097C18.0839 53.3328 18.8838 52.5325 18.8838 51.546V31.4706L24.6042 34.3304C26.7934 35.4248 29.763 34.7724 31.1058 32.2807H37.5121L30.7285 50.9351C30.3911 51.8624 30.8699 52.888 31.7973 53.2248C32.8572 53.6106 33.7999 52.9457 34.087 52.1565L41.3145 32.2807H42.5671L49.8686 52.1621C50.146 52.9164 51.0817 53.6199 52.1621 53.223C53.0881 52.8829 53.5636 51.8564 53.223 50.93L46.3738 32.2807H55.3736C58.4092 32.2807 60.9879 29.8318 60.9879 26.6664V5.61432C60.9879 2.44841 58.4092 0 55.3736 0V0ZM6.44442 14.2266C6.44442 11.5181 8.64762 9.31486 11.3557 9.31486C14.0642 9.31486 16.2674 11.5181 16.2674 14.2266C16.2674 16.9346 14.0642 19.1378 11.3557 19.1378C8.64762 19.1378 6.44442 16.9346 6.44442 14.2266ZM28.0521 30.3702C28.0474 30.3832 28.0428 30.3967 28.0386 30.4102C27.9167 30.7503 27.6412 31.037 27.3039 31.1756C26.947 31.3208 26.5454 31.3055 26.2025 31.1342C22.8049 29.4345 17.8955 26.9819 17.8955 26.9819C16.7099 26.3891 15.3103 27.2527 15.3103 28.5802V49.7593H7.40108V40.0629C7.40108 39.0764 6.60076 38.2761 5.61432 38.2761C4.48876 38.2761 3.57351 37.3609 3.57351 36.2353V30.494C3.57351 26.128 7.12841 22.7118 11.3557 22.7118H12.9344C14.1321 22.7118 15.3284 22.9928 16.3972 23.5265C16.3972 23.5265 25.2598 27.9339 27.517 29.058C28.0004 29.2981 28.2303 29.8621 28.0521 30.3702ZM57.4144 26.6664C57.4144 27.2122 57.2027 27.7245 56.8174 28.1098C56.4382 28.4894 55.912 28.7072 55.3736 28.7072H31.4944C31.4911 28.6974 31.4888 28.6877 31.4855 28.6784L35.9198 19.8102C36.3609 18.9275 36.0036 17.8545 35.1209 17.413C34.2387 16.9719 33.1653 17.3292 32.7237 18.2119L28.9417 25.7753C28.2368 25.424 27.4174 25.016 26.5394 24.5795V5.61432C26.5394 4.48922 27.4546 3.57351 28.5802 3.57351H55.3736C55.912 3.57351 56.4382 3.79127 56.8179 4.17189C57.2027 4.55623 57.4144 5.06852 57.4144 5.61432V26.6664Z" fill="#D22D8F"/>
<path d="M51.5457 7.65509H32.4074C31.4205 7.65509 30.6206 8.45494 30.6206 9.44185C30.6206 10.4287 31.4205 11.2286 32.4074 11.2286H51.5457C52.5321 11.2286 53.3324 10.4287 53.3324 9.44185C53.3324 8.45494 52.5326 7.65509 51.5457 7.65509Z" fill="#D22D8F"/>
<path d="M51.5461 14.3536H41.9767C40.9903 14.3536 40.1899 15.1534 40.1899 16.1403C40.1899 17.1272 40.9903 17.9271 41.9767 17.9271H51.5461C52.5325 17.9271 53.3328 17.1272 53.3328 16.1403C53.3328 15.1534 52.533 14.3536 51.5461 14.3536Z" fill="#D22D8F"/>
<path d="M51.5461 21.0521H41.9767C40.9903 21.0521 40.1899 21.8519 40.1899 22.8388C40.1899 23.8253 40.9903 24.6256 41.9767 24.6256H51.5461C52.5325 24.6256 53.3328 23.8253 53.3328 22.8388C53.3328 21.8519 52.533 21.0521 51.5461 21.0521Z" fill="#D22D8F"/>
</svg>
